<svg version="1.2" xmlns="http://www.w3.org/2000/svg" viewBox="0 0 196 34" width="196" height="34"><style>.s0{fill:#f5edff}</style><path fill-rule="evenodd" class="s0" d="m13.9 7q4.9 0 7.2 1.9q2.4 2 2.4 5.2q0 1.1-0.3 2.4q-0.7 3-2.6 5.2q-1.8 2.2-4.6 3.4q-2.7 1.2-5.8 1.2q-5.1 0-7.5-2q-2.3-2-2.3-5.3q0-1.1 0.2-2.5q0.7-2.8 2.6-4.9q2-2.2 4.8-3.4q2.8-1.2 5.9-1.2zm-0.1 3.2q-0.7 0-1.6 1.3q-0.8 1.4-2 5.1q-1.1 3.7-1.1 5.3q0 0.8 0.2 1q0.3 0.3 0.7 0.3q0.8 0.1 1.6-1.3q0.8-1.4 2-5.3q1.1-3.5 1.1-5.1q0-0.8-0.2-1.1q-0.2-0.2-0.7-0.2z" /><path class="s0" d="m45 22q-0.1 0.2-0.1 0.5q0 0.2 0.1 0.4q0.2 0.1 0.4 0.1q0.4 0 0.7-0.4q0.3-0.4 0.4-0.4q0.2 0 0.3 0.3q0.1 0.2 0.1 0.5q0.1 1.1-0.7 2.1q-0.7 1-2.1 1.6q-1.3 0.6-3.3 0.6q-2.4 0-3.8-1.1q-1.4-1.1-1.4-2.9q0-1.3 0.6-3l2-5.2q0.2-0.4 0.2-0.7q0-0.5-0.3-0.8q-0.3-0.2-0.7-0.2q-0.7 0-1.4 0.6q-0.7 0.6-1.2 2v-0.1l-2.2 7.4q-0.1 0.4-0.1 0.7q0 0.5 0.1 0.8q0.2 0.2 0.5 0.5q0.3 0.2 0.4 0.4q0.1 0.1 0 0.4q-0.1 0.5-0.7 0.7q-0.5 0.2-1.6 0.2h-8.2q-1 0-1.4-0.3q-0.4-0.3-0.3-0.8q0.1-0.4 0.8-0.8q0.5-0.3 0.9-0.7q0.3-0.4 0.6-1.2l5.4-18q0.1-0.3 0.1-0.5q0-0.4-0.2-0.7q-0.1-0.2-0.5-0.5q-0.3-0.3-0.5-0.5q-0.2-0.2 0-0.6q0.2-0.8 2.2-1.4q2.1-0.6 4.3-0.6q2.1 0 3.1 0.8q1 0.8 1 2.1q0 0.8-0.3 1.6l-1.9 6.3q1.4-1.8 2.9-2.5q1.6-0.7 3.4-0.7q2.2 0 3.6 1.3q1.3 1.3 1.3 3.4q0 1.2-0.3 2.2z" /><path class="s0" d="m82.7 22q-0.1 0.2-0.1 0.5q0 0.2 0.2 0.4q0.1 0.1 0.3 0.1q0.4 0 0.7-0.4q0.4-0.4 0.5-0.4q0.1 0 0.3 0.3q0.1 0.2 0.1 0.5q0 1.1-0.7 2.1q-0.7 1-2.1 1.6q-1.4 0.6-3.4 0.6q-2.3 0-3.7-1.1q-1.4-1.1-1.5-2.9q0-1.3 0.7-3l1.9-5.2q0.2-0.4 0.2-0.7q0-0.5-0.3-0.8q-0.3-0.2-0.7-0.2q-0.6 0-1.3 0.5q-0.6 0.5-1.1 1.7l-2 6.4q-0.1 0.2-0.1 0.5q0 0.2 0.1 0.4q0.2 0.1 0.4 0.1q0.4 0 0.7-0.4q0.3-0.4 0.4-0.4q0.2 0 0.3 0.3q0.1 0.2 0.1 0.5q0.1 1.1-0.6 2.1q-0.8 1-2.2 1.6q-1.3 0.6-3.3 0.6q-2.4 0-3.8-1.1q-1.4-1.1-1.4-2.9q0-1.3 0.6-3l2-5.2q0.2-0.4 0.2-0.7q0-0.5-0.3-0.8q-0.3-0.2-0.7-0.2q-0.7 0-1.3 0.5q-0.6 0.5-1.1 1.7l-2.4 7.7q-0.1 0.4-0.1 0.7q0 0.4 0.2 0.7q0.2 0.3 0.5 0.6q0.2 0.2 0.3 0.4q0.2 0.1 0.1 0.4q-0.2 0.5-0.7 0.7q-0.5 0.2-1.7 0.2h-8.2q-0.9 0-1.3-0.3q-0.5-0.3-0.4-0.8q0.2-0.4 0.8-0.8q0.5-0.3 0.9-0.7q0.4-0.4 0.6-1.2l3.2-10.4q0.1-0.2 0.1-0.5q0-0.4-0.2-0.6q-0.1-0.3-0.5-0.6q-0.4-0.3-0.5-0.5q-0.1-0.2 0-0.6q0.2-0.8 2.2-1.4q2.1-0.6 4.3-0.6q1.8 0 2.8 0.9q1 1 1 2.7q1.5-2.1 3.1-2.9q1.6-0.7 3.6-0.7q2 0 3.3 1.2q1.4 1.2 1.5 3.1q1.6-2.4 3.3-3.4q1.8-0.9 3.9-0.9q2.2 0 3.5 1.3q1.4 1.3 1.4 3.4q0 1.2-0.4 2.2z" /><path class="s0" d="m104.9 8q1.6 0 2.6 1.3q0.9 1.2 0.9 3.4q0 1.9-0.7 4.1q-1.3 4.4-4.2 8.4q-3 3.9-6.8 6.3q-3.8 2.3-7.5 2.3q-1.9 0-3.3-0.6q-1.3-0.7-2-1.7q-0.7-1.1-0.7-2.3q0-0.6 0.2-1.2q0.3-1 1-1.6q0.8-0.5 1.8-0.5q1.7 0 2.7 1.1q1.1 1.2 1.4 3.1q2.3-0.1 4.3-1.9q-1.9-0.4-2.8-1.3q-0.8-0.9-1.2-2.9l-1.4-8.8q-0.1-0.7-0.3-0.9q-0.2-0.3-0.5-0.3q-0.3 0-0.6 0.3q-0.4 0.2-0.5 0.2q-0.3 0-0.3-0.6q0-0.5 0.2-1.1q0.6-2 2.4-3.4q1.8-1.5 4.1-1.5q2.3 0 3.4 1.4q1.1 1.4 1.4 4.2l1.1 7.9q0.1 0.9 0.7 0.9q0.6 0 1.5-1.1q0.8-1.2 1.7-3.4q-1.1-1-1.7-2.2q-0.6-1.3-0.6-2.7q0-1.1 0.3-2q0.4-1.5 1.3-2.2q1-0.7 2.1-0.7z" /><path class="s0" d="m122.9 0.4q3.8 0 5.7 1.2q2 1.1 2 2.8q0 1.4-1.2 2.2q-1.1 0.7-2.9 0.7q-1.7 0-2.7-0.9q-0.9-0.8-0.9-2q0-0.8 0.5-1.6q-1.1 0-1.8 0.5q-0.8 0.6-1.1 1.8q-0.3 0.8-0.3 1.5q0 0.9 0.3 1.4q0.3 0.4 0.9 0.4h2.1q1.9 0 1.9 1.2q0 0.1-0.1 0.4q-0.2 0.8-0.9 1.2q-0.6 0.4-1.9 0.4h-1.1l-3.6 11.7q-0.1 0.4-0.1 0.7q0 0.5 0.2 0.8q0.2 0.2 0.5 0.5q0.3 0.2 0.4 0.4q0.1 0.1 0 0.4q-0.2 0.5-0.7 0.7q-0.6 0.2-1.7 0.2h-8.2q-0.9 0-1.4-0.3q-0.4-0.3-0.2-0.8q0.1-0.4 0.7-0.8q0.6-0.3 0.9-0.7q0.4-0.4 0.6-1.2l2.8-9.2q0.2-0.6 0.2-1.1q0-0.8-0.3-1.2q-0.3-0.4-0.9-0.9q-0.4-0.3-0.6-0.5q-0.2-0.3-0.2-0.6q0-0.7 0.5-1q0.5-0.3 2-0.3h0.9q-0.3-0.9-0.3-1.8q0-0.9 0.4-1.8q0.6-1.9 2.9-3.1q2.2-1.3 6.7-1.3z" /><path fill-rule="evenodd" class="s0" d="m137.1 8q4.9 0 7.2 1.9q2.3 2 2.3 5.2q0 1.1-0.3 2.4q-0.6 3-2.5 5.2q-1.9 2.2-4.6 3.4q-2.7 1.2-5.9 1.2q-5 0-7.4-2q-2.4-2-2.4-5.3q0-1.1 0.3-2.5q0.7-2.8 2.6-4.9q1.9-2.2 4.7-3.4q2.8-1.2 6-1.2zm-0.1 3.2q-0.8 0-1.6 1.3q-0.9 1.4-2 5.1q-1.2 3.7-1.2 5.3q0 0.8 0.3 1q0.2 0.3 0.7 0.3q0.7 0.1 1.5-1.3q0.8-1.4 2.1-5.3q1.1-3.5 1.1-5.1q0-0.8-0.3-1.1q-0.2-0.2-0.6-0.2z" /><path fill-rule="evenodd" class="s0" d="m160.7 8q4.9 0 7.2 1.9q2.3 2 2.3 5.2q0 1.1-0.2 2.4q-0.7 3-2.6 5.2q-1.9 2.2-4.6 3.4q-2.7 1.2-5.9 1.2q-5 0-7.4-2q-2.4-2-2.4-5.3q0-1.1 0.3-2.5q0.7-2.8 2.6-4.9q2-2.2 4.7-3.4q2.8-1.2 6-1.2zm-0.1 3.2q-0.8 0-1.6 1.3q-0.8 1.4-2 5.1q-1.2 3.7-1.2 5.3q0 0.8 0.3 1q0.3 0.3 0.7 0.3q0.7 0.1 1.5-1.3q0.9-1.4 2.1-5.3q1.1-3.5 1.1-5.1q0-0.8-0.3-1.1q-0.2-0.2-0.6-0.2z" /><path fill-rule="evenodd" class="s0" d="m190.5 21.8q0 0.3 0 0.4q0 0.3 0.1 0.4q0.1 0.2 0.4 0.2q0.4 0 0.7-0.4q0.3-0.4 0.4-0.4q0.2 0 0.3 0.2q0.1 0.3 0.1 0.6q0 1-0.8 2q-0.7 1-2 1.7q-1.3 0.6-2.8 0.6q-1.8 0-3.1-0.7q-1.4-0.7-1.9-1.8q-1 1.3-2.2 1.9q-1.3 0.6-2.7 0.6q-1.6 0-3.1-0.8q-1.4-0.8-2.2-2.4q-0.9-1.5-0.9-3.5q0-3.2 1.3-6.1q1.2-2.9 3.5-4.7q2.2-1.8 5-1.8q1.6 0 2.7 0.4q1.1 0.3 2 1.1l1.2-4.1q0.1-0.3 0.1-0.5q0-0.4-0.2-0.7q-0.2-0.2-0.5-0.5q-0.4-0.3-0.6-0.5q-0.1-0.2 0-0.6q0.2-0.8 2.3-1.4q2-0.6 4.3-0.6q2 0 3 0.8q1 0.8 1 2.1q0 0.8-0.2 1.6zm-6-10.1q-0.6-0.5-1.3-0.5q-1 0-2.1 1.5q-1 1.6-1.6 3.8q-0.6 2.2-0.5 3.9q0 2 1.2 2q0.5 0 0.8-0.4q0.4-0.3 0.7-1.2z" /></svg>